<mxfile host="app.diagrams.net" modified="2022-05-26T10:08:15.962Z" agent="5.0 (Windows NT 10.0; Win64; x64) AppleWebKit/537.36 (KHTML, like Gecko) Chrome/102.0.5005.61 Safari/537.36" etag="ph4wYRXzR3S0uW282pb1" version="18.1.2" type="github">
  <diagram id="C5RBs43oDa-KdzZeNtuy" name="Page-1">
    <mxGraphModel dx="419" dy="534" grid="1" gridSize="10" guides="1" tooltips="1" connect="1" arrows="1" fold="1" page="1" pageScale="1" pageWidth="1654" pageHeight="1169" math="0" shadow="0">
      <root>
        <mxCell id="WIyWlLk6GJQsqaUBKTNV-0" />
        <mxCell id="WIyWlLk6GJQsqaUBKTNV-1" parent="WIyWlLk6GJQsqaUBKTNV-0" />
        <mxCell id="MZ5k-7aTsP1du69uxO8d-0" value="GameObject" style="swimlane;fontStyle=1;align=center;verticalAlign=top;childLayout=stackLayout;horizontal=1;startSize=26;horizontalStack=0;resizeParent=1;resizeParentMax=0;resizeLast=0;collapsible=1;marginBottom=0;" vertex="1" parent="WIyWlLk6GJQsqaUBKTNV-1">
          <mxGeometry x="570" y="20" width="330" height="360" as="geometry" />
        </mxCell>
        <mxCell id="MZ5k-7aTsP1du69uxO8d-1" value="# active: bool&#xa;# angle: float&#xa;# image: PictureIndex&#xa;# position: Vector2D&#xa;# scale: float&#xa;# screenHeight: int&#xa;# screenWidth: int" style="text;strokeColor=none;fillColor=none;align=left;verticalAlign=top;spacingLeft=4;spacingRight=4;overflow=hidden;rotatable=0;points=[[0,0.5],[1,0.5]];portConstraint=eastwest;" vertex="1" parent="MZ5k-7aTsP1du69uxO8d-0">
          <mxGeometry y="26" width="330" height="114" as="geometry" />
        </mxCell>
        <mxCell id="MZ5k-7aTsP1du69uxO8d-2" value="" style="line;strokeWidth=1;fillColor=none;align=left;verticalAlign=middle;spacingTop=-1;spacingLeft=3;spacingRight=3;rotatable=0;labelPosition=right;points=[];portConstraint=eastwest;" vertex="1" parent="MZ5k-7aTsP1du69uxO8d-0">
          <mxGeometry y="140" width="330" height="8" as="geometry" />
        </mxCell>
        <mxCell id="MZ5k-7aTsP1du69uxO8d-3" value="+ ~GameObject()&#xa;+ GameObject()&#xa;+ AddImage(anim: Animation*, filename: const wchar_t*)&#xa;+ Deactivate()&#xa;+ GetDetectionRadius()&#xa;+ GetPosition()&#xa;+ GetShape()&#xa;+ HandleCollision(other: GameObject&amp;)&#xa;+ HandleDetection(other: GameObject&amp;)&#xa;+ IsActive()&#xa;# LoadImg(filename: const wchart_t*)&#xa;+ Render()&#xa;+ SetCurrentImage(image: int)&#xa;+ Update(gt: double)" style="text;strokeColor=none;fillColor=none;align=left;verticalAlign=top;spacingLeft=4;spacingRight=4;overflow=hidden;rotatable=0;points=[[0,0.5],[1,0.5]];portConstraint=eastwest;" vertex="1" parent="MZ5k-7aTsP1du69uxO8d-0">
          <mxGeometry y="148" width="330" height="212" as="geometry" />
        </mxCell>
        <mxCell id="MZ5k-7aTsP1du69uxO8d-16" value="AnimatedGameObject" style="swimlane;fontStyle=1;align=center;verticalAlign=top;childLayout=stackLayout;horizontal=1;startSize=26;horizontalStack=0;resizeParent=1;resizeParentMax=0;resizeLast=0;collapsible=1;marginBottom=0;" vertex="1" parent="WIyWlLk6GJQsqaUBKTNV-1">
          <mxGeometry x="30" y="230" width="300" height="188" as="geometry" />
        </mxCell>
        <mxCell id="MZ5k-7aTsP1du69uxO8d-17" value="- animations: vector&lt;Animations&gt;&#xa;- m_animationsTimer: float&#xa;- m_currentAnimation: int" style="text;strokeColor=none;fillColor=none;align=left;verticalAlign=top;spacingLeft=4;spacingRight=4;overflow=hidden;rotatable=0;points=[[0,0.5],[1,0.5]];portConstraint=eastwest;" vertex="1" parent="MZ5k-7aTsP1du69uxO8d-16">
          <mxGeometry y="26" width="300" height="54" as="geometry" />
        </mxCell>
        <mxCell id="MZ5k-7aTsP1du69uxO8d-18" value="" style="line;strokeWidth=1;fillColor=none;align=left;verticalAlign=middle;spacingTop=-1;spacingLeft=3;spacingRight=3;rotatable=0;labelPosition=right;points=[];portConstraint=eastwest;" vertex="1" parent="MZ5k-7aTsP1du69uxO8d-16">
          <mxGeometry y="80" width="300" height="8" as="geometry" />
        </mxCell>
        <mxCell id="MZ5k-7aTsP1du69uxO8d-19" value="+ AddAnimation&#xa;+ AddImage(animCount: int, filename: const wchar_t*)&#xa;+ Animate(frameTime: float)&#xa;+ NextAnimation(currentIndex: int, nextIndex: int)&#xa;+ SetAnimationSpeed(index: int, speed: float)&#xa;+ SetCurrentAnimation(anim: int)" style="text;strokeColor=none;fillColor=none;align=left;verticalAlign=top;spacingLeft=4;spacingRight=4;overflow=hidden;rotatable=0;points=[[0,0.5],[1,0.5]];portConstraint=eastwest;" vertex="1" parent="MZ5k-7aTsP1du69uxO8d-16">
          <mxGeometry y="88" width="300" height="100" as="geometry" />
        </mxCell>
        <mxCell id="MZ5k-7aTsP1du69uxO8d-32" value="explosion" style="swimlane;fontStyle=1;align=center;verticalAlign=top;childLayout=stackLayout;horizontal=1;startSize=26;horizontalStack=0;resizeParent=1;resizeParentMax=0;resizeLast=0;collapsible=1;marginBottom=0;" vertex="1" parent="WIyWlLk6GJQsqaUBKTNV-1">
          <mxGeometry x="30" y="460" width="160" height="86" as="geometry" />
        </mxCell>
        <mxCell id="MZ5k-7aTsP1du69uxO8d-33" value="+ field: type" style="text;strokeColor=none;fillColor=none;align=left;verticalAlign=top;spacingLeft=4;spacingRight=4;overflow=hidden;rotatable=0;points=[[0,0.5],[1,0.5]];portConstraint=eastwest;" vertex="1" parent="MZ5k-7aTsP1du69uxO8d-32">
          <mxGeometry y="26" width="160" height="26" as="geometry" />
        </mxCell>
        <mxCell id="MZ5k-7aTsP1du69uxO8d-34" value="" style="line;strokeWidth=1;fillColor=none;align=left;verticalAlign=middle;spacingTop=-1;spacingLeft=3;spacingRight=3;rotatable=0;labelPosition=right;points=[];portConstraint=eastwest;" vertex="1" parent="MZ5k-7aTsP1du69uxO8d-32">
          <mxGeometry y="52" width="160" height="8" as="geometry" />
        </mxCell>
        <mxCell id="MZ5k-7aTsP1du69uxO8d-35" value="+ method(type): type" style="text;strokeColor=none;fillColor=none;align=left;verticalAlign=top;spacingLeft=4;spacingRight=4;overflow=hidden;rotatable=0;points=[[0,0.5],[1,0.5]];portConstraint=eastwest;" vertex="1" parent="MZ5k-7aTsP1du69uxO8d-32">
          <mxGeometry y="60" width="160" height="26" as="geometry" />
        </mxCell>
        <mxCell id="MZ5k-7aTsP1du69uxO8d-48" value="RoamingRobot" style="swimlane;fontStyle=1;align=center;verticalAlign=top;childLayout=stackLayout;horizontal=1;startSize=26;horizontalStack=0;resizeParent=1;resizeParentMax=0;resizeLast=0;collapsible=1;marginBottom=0;" vertex="1" parent="WIyWlLk6GJQsqaUBKTNV-1">
          <mxGeometry x="30" y="690" width="160" height="86" as="geometry" />
        </mxCell>
        <mxCell id="MZ5k-7aTsP1du69uxO8d-49" value="+ field: type" style="text;strokeColor=none;fillColor=none;align=left;verticalAlign=top;spacingLeft=4;spacingRight=4;overflow=hidden;rotatable=0;points=[[0,0.5],[1,0.5]];portConstraint=eastwest;" vertex="1" parent="MZ5k-7aTsP1du69uxO8d-48">
          <mxGeometry y="26" width="160" height="26" as="geometry" />
        </mxCell>
        <mxCell id="MZ5k-7aTsP1du69uxO8d-50" value="" style="line;strokeWidth=1;fillColor=none;align=left;verticalAlign=middle;spacingTop=-1;spacingLeft=3;spacingRight=3;rotatable=0;labelPosition=right;points=[];portConstraint=eastwest;" vertex="1" parent="MZ5k-7aTsP1du69uxO8d-48">
          <mxGeometry y="52" width="160" height="8" as="geometry" />
        </mxCell>
        <mxCell id="MZ5k-7aTsP1du69uxO8d-51" value="+ method(type): type" style="text;strokeColor=none;fillColor=none;align=left;verticalAlign=top;spacingLeft=4;spacingRight=4;overflow=hidden;rotatable=0;points=[[0,0.5],[1,0.5]];portConstraint=eastwest;" vertex="1" parent="MZ5k-7aTsP1du69uxO8d-48">
          <mxGeometry y="60" width="160" height="26" as="geometry" />
        </mxCell>
        <mxCell id="MZ5k-7aTsP1du69uxO8d-64" value="turret" style="swimlane;fontStyle=1;align=center;verticalAlign=top;childLayout=stackLayout;horizontal=1;startSize=26;horizontalStack=0;resizeParent=1;resizeParentMax=0;resizeLast=0;collapsible=1;marginBottom=0;" vertex="1" parent="WIyWlLk6GJQsqaUBKTNV-1">
          <mxGeometry x="30" y="940" width="160" height="86" as="geometry" />
        </mxCell>
        <mxCell id="MZ5k-7aTsP1du69uxO8d-65" value="+ field: type" style="text;strokeColor=none;fillColor=none;align=left;verticalAlign=top;spacingLeft=4;spacingRight=4;overflow=hidden;rotatable=0;points=[[0,0.5],[1,0.5]];portConstraint=eastwest;" vertex="1" parent="MZ5k-7aTsP1du69uxO8d-64">
          <mxGeometry y="26" width="160" height="26" as="geometry" />
        </mxCell>
        <mxCell id="MZ5k-7aTsP1du69uxO8d-66" value="" style="line;strokeWidth=1;fillColor=none;align=left;verticalAlign=middle;spacingTop=-1;spacingLeft=3;spacingRight=3;rotatable=0;labelPosition=right;points=[];portConstraint=eastwest;" vertex="1" parent="MZ5k-7aTsP1du69uxO8d-64">
          <mxGeometry y="52" width="160" height="8" as="geometry" />
        </mxCell>
        <mxCell id="MZ5k-7aTsP1du69uxO8d-67" value="+ method(type): type" style="text;strokeColor=none;fillColor=none;align=left;verticalAlign=top;spacingLeft=4;spacingRight=4;overflow=hidden;rotatable=0;points=[[0,0.5],[1,0.5]];portConstraint=eastwest;" vertex="1" parent="MZ5k-7aTsP1du69uxO8d-64">
          <mxGeometry y="60" width="160" height="26" as="geometry" />
        </mxCell>
      </root>
    </mxGraphModel>
  </diagram>
</mxfile>
